<svg width="125" height="71" viewBox="0 0 125 71" fill="none" xmlns="http://www.w3.org/2000/svg">
<path d="M38.1553 70.1124C37.9892 70.1124 37.8542 70.0916 37.7504 70.0501C37.5428 69.8632 37.4389 69.6348 37.4389 69.3648C37.4389 69.1156 37.5324 68.773 37.7193 68.337L37.9061 67.8075C37.9684 67.5998 38.0515 67.3818 38.1553 67.1534C38.2799 66.9457 38.3734 66.7277 38.4356 66.4993L39.5569 63.9452C39.6815 63.6337 39.8165 63.3326 39.9619 63.0419L40.1176 62.7616C40.2007 62.5332 40.2941 62.3152 40.3979 62.1075L40.4602 61.9829L40.9897 60.8305L41.4881 59.8026C41.5504 59.7403 41.6127 59.6469 41.675 59.5223C41.8826 59.0032 42.1214 58.5152 42.3913 58.0584C42.4121 58.0376 42.4225 58.0065 42.4225 57.9649C42.4433 57.9234 42.464 57.8819 42.4848 57.8404C42.5056 57.7988 42.5159 57.7677 42.5159 57.7469C42.6405 57.5808 42.7443 57.4147 42.8274 57.2486V57.1551L42.8897 57.0617C43.1596 56.6049 43.4192 56.1065 43.6684 55.5666C43.9176 55.0267 44.2083 54.4972 44.5405 53.9781L44.8831 53.2617C44.9039 53.1994 44.935 53.1267 44.9766 53.0437C45.0181 52.9814 45.1634 52.7426 45.4126 52.3273C45.4126 52.3065 45.4126 52.2754 45.4126 52.2339C45.4334 52.2131 45.5684 51.9951 45.8175 51.5798C46.0667 51.1645 46.2017 50.9049 46.2225 50.8011C46.264 50.718 46.3055 50.6454 46.347 50.5831C46.5132 50.3339 46.6585 50.0847 46.7831 49.8355C46.9077 49.6071 47.0323 49.3891 47.1569 49.1814L47.2192 49.0257L47.9978 47.6552C48.3716 46.9908 48.7558 46.347 49.1503 45.7241C49.1918 45.6618 49.223 45.5787 49.2437 45.4749C49.2853 45.3919 49.7836 44.582 50.7388 43.0454C51.777 41.3012 52.3585 40.3564 52.483 40.211C52.6076 40.0657 52.6699 39.9515 52.6699 39.8684L53.1371 39.1832C53.1371 39.1624 53.1371 39.1417 53.1371 39.1209C53.1579 39.0794 53.2098 39.0171 53.2929 38.934C53.459 38.7056 53.542 38.5602 53.542 38.4979V38.4668L52.9191 38.4356C52.3585 38.4356 51.8809 38.446 51.4863 38.4668C49.7006 38.4668 48.2159 38.4772 47.0323 38.4979C44.6651 38.5395 42.6924 38.5602 41.1143 38.5602C40.9897 38.581 40.8444 38.5914 40.6782 38.5914L40.5537 38.5602L40.2422 38.5914L40.0553 38.5602C40.0138 38.5602 39.9515 38.5706 39.8684 38.5914C39.8061 38.6121 39.4947 38.6225 38.934 38.6225C38.6848 38.6433 38.4357 38.6537 38.1865 38.6537C37.9581 38.6537 37.8023 38.6641 37.7193 38.6848C37.6985 38.6641 37.6674 38.6537 37.6258 38.6537C37.5012 38.6537 37.4286 38.6641 37.4078 38.6848L37.1586 38.6537C37.0133 38.6537 36.8783 38.6641 36.7537 38.6848L35.6635 38.6537L34.7914 38.716H33.8259C33.7843 38.7367 33.6909 38.7471 33.5455 38.7471C33.504 38.7471 33.4729 38.7367 33.4521 38.716H33.3587C33.3379 38.7367 33.2548 38.7471 33.1095 38.7471H32.7046C32.4554 38.7471 32.2789 38.7575 32.1751 38.7783C32.0712 38.799 31.8221 38.8094 31.4275 38.8094H30.8357C29.9844 38.8094 29.3614 38.8198 28.9669 38.8406H28.7177C28.4685 38.8406 28.2297 38.8613 28.0013 38.9029L27.3161 38.934L26.9735 38.9029C26.662 38.9029 26.4336 38.9132 26.2882 38.934C25.4784 38.934 25.032 38.9444 24.9489 38.9652L24.1702 38.9963L23.9833 38.9652L23.485 39.0274C23.2151 39.0274 23.0489 39.0378 22.9866 39.0586H22.5506L22.3637 39.0274L22.1768 39.0586H21.803C21.7407 39.0378 21.6681 39.0274 21.585 39.0274L21.367 39.0586L18.7506 39.1832H17.4113C17.3282 39.2039 17.2348 39.2143 17.131 39.2143L16.9441 39.1832L16.7883 39.2143C16.4561 39.2143 16.2277 39.2247 16.1031 39.2455C15.9785 39.2662 15.6255 39.2766 15.0441 39.2766C14.8157 39.2766 14.6496 39.287 14.5457 39.3078H14.2031C14.1616 39.287 14.1097 39.2766 14.0474 39.2766L13.9228 39.3078C13.4867 39.3078 13.2064 39.3182 13.0818 39.3389H11.8671L11.6802 39.3078L11.1818 39.3701C11.1611 39.3701 11.1507 39.3597 11.1507 39.3389L10.3409 39.3701H9.37531L8.75236 39.4012L7.66221 39.3389H7.03927C6.76933 39.3389 6.58244 39.3285 6.47862 39.3078H6.16715C5.9595 39.2662 5.73109 39.2455 5.48191 39.2455C5.2535 39.2455 5.06661 39.2351 4.92126 39.2143H4.73438C4.46443 39.152 4.17373 39.1105 3.86225 39.0897C3.57155 39.069 3.28084 39.0171 2.99013 38.934C2.34642 38.7679 1.77539 38.5499 1.27704 38.2799C0.425678 37.8439 0 37.1378 0 36.1619C0 35.8297 0.051912 35.539 0.155736 35.2898C0.197266 35.186 0.228413 35.0821 0.249178 34.9783C0.269942 34.8745 0.30109 34.7603 0.342619 34.6357C0.654091 33.992 1.02786 33.3898 1.46392 32.8292L2.36719 31.6144C2.42948 31.5729 2.65789 31.3133 3.05243 30.8357L3.33275 30.5554V30.5243C3.39505 30.4412 3.46772 30.3685 3.55078 30.3062V30.2751C3.61308 30.2336 3.67537 30.1713 3.73766 30.0882C3.82072 30.0051 3.91417 29.9117 4.01799 29.8079C4.12181 29.7041 4.21525 29.6002 4.29831 29.4964L4.45405 29.3718C4.68246 29.0811 4.95241 28.8215 5.26388 28.5931C5.38847 28.4685 5.50267 28.344 5.6065 28.2194C5.71032 28.0948 5.83491 27.9702 5.98026 27.8456C6.00103 27.8456 6.01141 27.8456 6.01141 27.8456C6.03218 27.8248 6.15676 27.7002 6.38518 27.4718H6.41632L7.72451 26.2571C7.82833 26.174 7.92177 26.091 8.00483 26.0079C8.08789 25.9041 8.18133 25.821 8.28516 25.7587C8.67969 25.4473 9.05345 25.1254 9.40646 24.7932C9.78022 24.4609 10.1644 24.1495 10.5589 23.8588L11.3687 23.1735L11.3999 23.1112C11.8359 22.7998 12.2616 22.4779 12.6769 22.1457C13.1545 21.7511 13.6529 21.367 14.172 20.9932C14.525 20.6402 16.1239 19.4566 18.9686 17.4424C19.0932 17.3594 19.2178 17.2556 19.3424 17.131C21.6058 15.5736 23.9211 14.0682 26.2882 12.6146C27.0358 12.1163 27.503 11.8256 27.6899 11.7425C27.8975 11.6387 28.1155 11.5037 28.344 11.3376L28.6243 11.1507C29.8702 10.4655 30.9396 9.8529 31.8324 9.31301C31.957 9.27148 32.0297 9.24034 32.0505 9.21957C32.2166 9.11575 32.3931 9.02231 32.58 8.93925L33.3898 8.50319C34.0543 8.10866 34.7499 7.73489 35.4767 7.38189L37.034 6.63435L37.9061 6.19829L38.5914 5.88682C38.6121 5.88682 38.6537 5.86606 38.716 5.82453C38.7783 5.76223 38.9548 5.67917 39.2455 5.57535C39.6608 5.43 39.9411 5.29502 40.0865 5.17044L40.7405 4.92126C41.1558 4.75514 41.5711 4.56826 41.9864 4.36061L42.2979 4.23602C42.5056 4.17373 42.7651 4.08028 43.0766 3.95569C43.3881 3.83111 43.6788 3.69613 43.9487 3.55078L44.1356 3.51963C44.8416 3.24969 45.558 2.99013 46.2847 2.74095L47.7175 2.21145C47.8006 2.16992 48.0186 2.11801 48.3716 2.05572C48.6208 1.95189 48.9011 1.85845 49.2126 1.77539C49.5448 1.69233 49.8771 1.58851 50.2093 1.46392C50.3339 1.42239 50.4481 1.40162 50.5519 1.40162C50.6765 1.38086 50.7907 1.34971 50.8945 1.30818C51.3514 1.16283 51.8289 1.04862 52.3273 0.965563C52.7218 0.882504 53.106 0.789062 53.4798 0.685238C54.1027 0.56065 54.5803 0.47759 54.9125 0.436061C55.2448 0.394531 55.5562 0.342619 55.8469 0.280325C55.9508 0.25956 56.0753 0.238795 56.2207 0.21803C56.3661 0.197266 56.5114 0.186883 56.6568 0.186883C56.8021 0.166118 56.9682 0.155736 57.1551 0.155736C57.5289 0.114206 57.7988 0.0934416 57.9649 0.0934416L58.183 0.0311472C58.3906 0.0311472 58.5256 0.0415296 58.5879 0.0622944L58.6502 0.0311472H58.9305C59.1797 0.0311472 59.325 0.0207648 59.3666 0C61.4638 0 63.26 0.290707 64.755 0.872122C64.8796 0.892886 65.0665 0.955181 65.3157 1.059C65.3365 1.059 65.3572 1.07977 65.378 1.1213C65.3987 1.14206 65.4299 1.16283 65.4714 1.18359C65.5337 1.20436 65.596 1.22512 65.6583 1.24589C65.866 1.32895 66.2813 1.59889 66.9042 2.05572L67.714 2.86554C67.9009 3.17701 68.1189 3.48849 68.3681 3.79996V3.8934L68.555 4.17373L68.5861 4.36061C68.8353 4.85896 68.9807 5.30541 69.0222 5.69994C69.126 6.05294 69.1779 6.36441 69.1779 6.63435C69.1779 6.77971 69.1987 6.92506 69.2402 7.07042V8.12942C69.2402 8.3163 69.2299 8.46166 69.2091 8.56548C69.2091 8.60701 69.2195 8.63816 69.2402 8.65892V8.78351C69.2195 8.82504 69.2091 8.88734 69.2091 8.9704C69.2091 9.05345 69.1987 9.13651 69.1779 9.21957C69.1572 9.30263 69.1468 9.38569 69.1468 9.46875L69.1779 9.59334L69.1468 9.71793C69.0845 9.94634 69.043 10.1851 69.0222 10.4343C69.0014 10.6835 68.9599 10.9327 68.8976 11.1818C68.8353 11.431 68.773 11.6906 68.7107 11.9605C68.6484 12.2305 68.5861 12.49 68.5238 12.7392L68.4304 13.1753L68.0878 14.2343C67.9424 14.7326 67.7867 15.2102 67.6206 15.667C67.3299 16.5184 67.0807 17.2036 66.873 17.7228C66.8108 17.9719 66.7588 18.1484 66.7173 18.2523C66.5304 18.6883 66.3435 19.1348 66.1567 19.5916C65.9905 20.0484 65.6375 20.8894 65.0977 22.1145L64.9108 22.5506V22.5817H64.9419C64.9834 22.4987 65.025 22.4364 65.0665 22.3948C65.1288 22.3533 65.1807 22.3014 65.2222 22.2391L66.0944 21.1801C66.4058 20.7856 66.7173 20.4118 67.0288 20.0588C67.361 19.685 67.6829 19.3009 67.9943 18.9064L68.2747 18.626C68.4823 18.3561 68.6796 18.1277 68.8665 17.9408C68.9703 17.7954 69.0845 17.6605 69.2091 17.5359C69.396 17.349 69.5621 17.1621 69.7074 16.9752C69.8736 16.7883 70.0397 16.6118 70.2058 16.4457C70.3719 16.2796 70.5277 16.1031 70.673 15.9162L71.1091 15.5113C71.2544 15.3244 71.3998 15.1583 71.5451 15.013C71.7112 14.8676 71.8462 14.743 71.95 14.6392C72.1162 14.4108 72.3134 14.1927 72.5418 13.9851L72.8222 13.7359C73.1959 13.3622 73.3932 13.1649 73.414 13.1441C73.4555 13.1234 73.4866 13.0818 73.5074 13.0195C73.5489 12.9572 73.5905 12.9157 73.632 12.8949C74.0265 12.5627 74.3691 12.2305 74.6599 11.8982C74.826 11.7736 74.9817 11.6387 75.1271 11.4933C75.1686 11.431 75.2205 11.3791 75.2828 11.3376C75.6358 11.0469 75.9784 10.7458 76.3107 10.4343C76.6637 10.1021 77.0167 9.7906 77.3697 9.4999C77.4527 9.4376 77.515 9.37531 77.5565 9.31301C77.6188 9.25072 77.6811 9.19881 77.7434 9.15728C78.2418 8.78351 78.6259 8.46166 78.8959 8.19171C80.3494 7.13271 81.1385 6.56168 81.2631 6.47862C81.3876 6.39556 81.5122 6.29174 81.6368 6.16715L83.9729 4.70323C84.222 4.55787 84.7204 4.29831 85.4679 3.92455C85.5925 3.84149 85.7379 3.76881 85.904 3.70652C85.9455 3.70652 85.9767 3.69614 85.9974 3.67537C86.039 3.63384 86.0701 3.60269 86.0909 3.58193L86.4646 3.45734C86.5062 3.45734 86.5581 3.42619 86.6204 3.3639L87.0564 3.20816C87.7832 2.89669 88.5619 2.63713 89.3925 2.42948C89.4755 2.40872 89.5482 2.39833 89.6105 2.39833C89.6728 2.39833 89.7974 2.36719 89.9843 2.30489H90.2023C90.3269 2.26336 90.4515 2.2426 90.5761 2.2426C90.7214 2.22183 90.846 2.20107 90.9498 2.1803H91.2613C91.3444 2.15954 91.4378 2.14916 91.5416 2.14916H92.3203C92.3203 2.16992 92.4034 2.1803 92.5695 2.1803C92.7356 2.1803 92.8498 2.19069 92.9121 2.21145C92.9744 2.23222 93.0575 2.25298 93.1613 2.27375C93.3897 2.31528 93.5973 2.36719 93.7842 2.42948L94.0334 2.46063L94.2203 2.55407C94.5318 2.65789 94.8121 2.79287 95.0613 2.95898C96.058 3.60269 96.8263 4.46443 97.3662 5.5442C97.3869 5.58573 97.3973 5.62726 97.3973 5.66879C97.3973 5.68956 97.3973 5.7207 97.3973 5.76223C97.4181 5.783 97.4388 5.81414 97.4596 5.85567C97.4804 5.87644 97.4908 5.90759 97.4908 5.94912C97.5115 5.99065 97.5323 6.03218 97.553 6.0737V6.136C97.553 6.15676 97.5842 6.19829 97.6465 6.26059C97.6465 6.42671 97.688 6.5513 97.7711 6.63435C97.7711 6.75894 97.7815 6.85239 97.8022 6.91468C97.823 6.95621 97.8438 7.02889 97.8645 7.13271C97.8853 7.21577 97.8957 7.31959 97.8957 7.44418C97.9164 7.54801 97.9683 7.75565 98.0514 8.06713C98.0514 8.19172 98.0722 8.3786 98.1137 8.62778L98.1448 8.81466L98.1137 8.9081L98.1448 9.34416V9.93596C98.1448 10.2682 98.1345 10.5278 98.1137 10.7146V10.995C98.0722 11.1611 98.041 11.348 98.0202 11.5556C98.0202 11.7633 97.9891 11.9605 97.9268 12.1474V12.3966C97.8645 12.6042 97.8126 12.8223 97.7711 13.0507C97.688 13.4452 97.5946 13.819 97.4908 14.172L97.4285 14.4212C97.0962 15.314 96.9197 15.7916 96.899 15.8539C96.899 15.9162 96.8782 15.9889 96.8367 16.072C96.4421 17.0479 95.9645 17.9616 95.4039 18.8129C95.4039 18.8337 95.3935 18.8648 95.3727 18.9064C95.3727 18.9271 95.3624 18.9479 95.3416 18.9686C95.3416 18.9894 95.3104 19.0309 95.2482 19.0932C95.1859 19.1555 95.1339 19.2386 95.0924 19.3424C95.0509 19.4255 94.9886 19.5189 94.9055 19.6227C94.8225 19.7266 94.7394 19.8408 94.6564 19.9654C94.4902 20.2561 94.3864 20.4118 94.3449 20.4326C94.3241 20.4326 94.3033 20.4429 94.2826 20.4637C94.1372 20.6714 93.9919 20.8686 93.8465 21.0555C93.7012 21.2216 93.5558 21.3981 93.4105 21.585C93.4105 21.6058 93.4001 21.6162 93.3793 21.6162C93.2132 21.7823 93.1094 21.9069 93.0678 21.9899C93.0471 21.9899 93.0367 22.0003 93.0367 22.0211C92.9121 22.1457 92.8291 22.2183 92.7875 22.2391C92.6214 22.4675 92.4345 22.6648 92.2269 22.8309C92.2061 22.8724 92.1853 22.9036 92.1646 22.9243C92.1438 22.9451 92.1334 22.9659 92.1334 22.9866C92.1334 22.9866 91.9881 23.1112 91.6974 23.3604C91.6974 23.3812 91.687 23.4019 91.6662 23.4227C91.6455 23.4435 91.6143 23.4746 91.5728 23.5161C91.5313 23.5369 91.5001 23.5577 91.4793 23.5784C91.4586 23.5784 91.4482 23.5888 91.4482 23.6096C91.4482 23.6303 91.4378 23.6407 91.417 23.6407L91.0433 23.9522L90.763 24.2325C90.6384 24.3363 90.5034 24.4298 90.358 24.5128C90.3165 24.5751 90.2854 24.6167 90.2646 24.6374C90.2438 24.6582 89.9739 24.8762 89.4548 25.2915C88.728 25.8314 87.9701 26.3505 87.181 26.8489C86.9526 27.015 86.8176 27.1188 86.7761 27.1604C86.7346 27.1811 86.693 27.2019 86.6515 27.2227C86.61 27.2227 86.5788 27.2434 86.5581 27.285C86.5373 27.3057 86.4023 27.3784 86.1532 27.503C84.5335 28.4582 83.6614 28.9358 83.5368 28.9358L83.4122 28.9669C82.9139 29.2576 82.3947 29.5068 81.8549 29.7144L81.7303 29.8079L80.3598 30.3997C80.0898 30.5243 79.8199 30.6281 79.55 30.7111C79.0308 30.9188 78.7401 31.033 78.6778 31.0538C78.6363 31.0538 78.5532 31.0849 78.4287 31.1472C78.3248 31.1887 78.1795 31.2406 77.9926 31.3029C77.8265 31.3652 77.6707 31.4275 77.5254 31.4898C77.4008 31.5521 77.2762 31.5936 77.1516 31.6144C77.027 31.6352 76.9024 31.6663 76.7779 31.7079C75.4489 32.227 73.8604 32.7046 72.0123 33.1406C71.0156 33.4106 70.4757 33.5455 70.3927 33.5455C70.3304 33.5455 70.2577 33.5559 70.1747 33.5767L69.1779 33.8259L68.4304 33.9816H68.3058C68.202 34.0231 68.0982 34.0543 67.9943 34.075C67.9113 34.075 67.8386 34.0854 67.7763 34.1062H67.6517C67.2987 34.21 66.9353 34.2827 66.5616 34.3242C66.2086 34.3657 65.8867 34.428 65.596 34.5111C65.4091 34.5111 65.2742 34.5215 65.1911 34.5422C65.025 34.5838 64.8589 34.6045 64.6927 34.6045C64.6097 34.6045 64.5266 34.6149 64.4436 34.6357C64.3605 34.6565 64.2671 34.6772 64.1632 34.698C64.0802 34.698 63.9971 34.7084 63.9141 34.7291C63.3119 34.8122 62.8551 34.8641 62.5436 34.8849C62.2529 34.8849 61.9622 34.916 61.6715 34.9783L61.36 35.0095L61.2354 34.9783L61.0797 35.0095C60.872 35.051 60.6644 35.0821 60.4567 35.1029C60.2491 35.1029 60.0622 35.1133 59.8961 35.134L58.6813 35.1963C58.3699 35.7985 58.1207 36.2553 57.9338 36.5668C57.8923 36.6291 57.8611 36.7018 57.8404 36.7848C57.8196 36.8471 57.7884 36.9094 57.7469 36.9717C57.7054 37.034 57.6223 37.1898 57.4977 37.4389C57.4354 37.5012 57.3835 37.6051 57.342 37.7504L57.3731 37.7816H58.5879C59.6054 37.7816 60.3944 37.7712 60.9551 37.7504H63.9141C64.0387 37.7296 64.2463 37.7193 64.537 37.7193H64.8485C64.8692 37.74 64.9212 37.7504 65.0042 37.7504C65.0457 37.7296 65.2015 37.7193 65.4714 37.7193H65.8763C65.9594 37.74 66.0736 37.7504 66.219 37.7504C66.3643 37.7504 66.4889 37.74 66.5927 37.7193H68.1501L68.2124 37.6881C68.2539 37.6881 68.2851 37.6985 68.3058 37.7193H69.0534L69.1468 37.6881L69.2091 37.7193H73.1025L77.4631 37.6881H86.2466C86.3089 37.6674 86.6827 37.657 87.3679 37.657C87.6794 37.657 87.8351 37.6466 87.8351 37.6258H87.8663C88.1154 37.6258 88.3023 37.6154 88.4269 37.5947C88.7176 37.5947 88.9253 37.7089 89.0499 37.9373C89.1329 38.0204 89.1744 38.1034 89.1744 38.1865L89.1433 38.3111C89.081 38.5395 88.9772 38.6848 88.8318 38.7471C88.6865 38.7887 88.4788 38.8094 88.2089 38.8094L78.2418 38.5291C77.8057 38.5291 77.4942 38.5187 77.3074 38.4979H76.9959C76.9128 38.4979 76.8609 38.5083 76.8402 38.5291L75.8123 38.4979C75.5216 38.4979 75.3036 38.4876 75.1582 38.4668L74.4418 38.4979C74.2965 38.4772 73.9123 38.4668 73.2894 38.4668C73.1648 38.446 72.8429 38.4356 72.3238 38.4356H72.2927L72.2304 38.4668H72.0435C71.8981 38.446 71.6697 38.4356 71.3582 38.4356C71.0468 38.4356 70.8287 38.446 70.7042 38.4668C70.2889 38.4668 69.9981 38.4564 69.832 38.4356C69.8113 38.4149 69.7801 38.4045 69.7386 38.4045L69.614 38.4356L69.2091 38.4045L68.9288 38.4356L68.1501 38.4045L67.6517 38.4356H63.6337L63.4469 38.4045L63.26 38.4356H61.3911L61.2043 38.4045C61.142 38.4045 61.09 38.4149 61.0485 38.4356H57.7469C57.3732 38.4356 57.1032 38.446 56.9371 38.4668C56.5218 39.2766 56.0961 40.0449 55.6601 40.7717C55.5355 41.0832 55.442 41.2804 55.3797 41.3635C55.0475 41.9034 54.7464 42.4433 54.4765 42.9831L54.383 43.2012C54.2377 43.4296 54.1027 43.6684 53.9781 43.9176C53.7705 44.3121 53.5524 44.6859 53.324 45.0389L53.0748 45.5372C52.7426 46.0979 52.4311 46.6481 52.1404 47.188C51.8497 47.7487 51.5382 48.2782 51.206 48.7765C51.1022 48.9634 51.0087 49.1399 50.9257 49.306C50.8634 49.4721 50.7803 49.6383 50.6765 49.8044C50.365 50.3235 50.0536 50.853 49.7421 51.3929C49.4514 51.9535 49.1503 52.4934 48.8388 53.0125C48.8181 53.0541 48.7973 53.0956 48.7765 53.1371C48.7765 53.1787 48.6 53.4797 48.247 54.0404L48.029 54.4765L47.5618 55.2551L46.9077 56.4699C46.6793 56.7814 46.3782 57.2901 46.0044 57.9961L45.7864 58.4633C45.4334 59.024 45.0908 59.595 44.7585 60.1764C44.3432 60.8824 43.9902 61.5261 43.6995 62.1075L43.0766 63.1354C43.0143 63.2184 42.9624 63.3015 42.9208 63.3846C42.9001 63.4676 42.8689 63.5403 42.8274 63.6026C42.7028 63.8102 42.5782 64.0283 42.4536 64.2567C42.3291 64.4851 42.1941 64.7031 42.0487 64.9108C42.0072 64.9938 41.976 65.0665 41.9553 65.1288C41.9345 65.1911 41.893 65.2638 41.8307 65.3468C41.7061 65.5337 41.5815 65.7414 41.4569 65.9698C41.3323 66.1982 41.1974 66.4162 41.052 66.6239L41.0209 66.7485C40.9793 66.79 40.9482 66.8315 40.9274 66.873C40.9067 66.9146 40.8859 66.9457 40.8651 66.9665C40.8444 67.008 40.8236 67.0392 40.8028 67.0599C40.8028 67.1015 40.7925 67.1326 40.7717 67.1534C40.7717 67.1741 40.7509 67.1949 40.7094 67.2157C40.6886 67.2364 40.6679 67.2572 40.6471 67.278C40.6471 67.3195 40.6367 67.3506 40.616 67.3714V67.4337C40.3668 67.7659 40.2318 67.9528 40.211 67.9943C40.1903 68.0566 40.1591 68.1086 40.1176 68.1501C40.0761 68.2124 40.0449 68.2747 40.0242 68.337L39.9619 68.4304C39.8788 68.4927 39.8373 68.5446 39.8373 68.5861C39.8373 68.6277 39.7854 68.7004 39.6815 68.8042C39.6815 68.8249 39.6712 68.8457 39.6504 68.8665C39.6504 68.908 39.64 68.9391 39.6192 68.9599C39.6192 68.9807 39.5985 69.0014 39.5569 69.0222C39.5362 69.043 39.5154 69.0637 39.4947 69.0845C39.4739 69.1053 39.4531 69.1468 39.4324 69.2091C39.4116 69.2922 39.3805 69.3337 39.3389 69.3337L39.1832 69.5517C38.9548 69.8216 38.7679 69.9981 38.6225 70.0812C38.4979 70.102 38.3422 70.1124 38.1553 70.1124ZM40.0242 65.5649L40.0553 65.5026C40.0553 65.4818 40.0449 65.4714 40.0242 65.4714C40.0242 65.4714 40.0138 65.5026 39.993 65.5649H40.0242ZM40.1487 65.378L41.0209 63.9452C41.5192 63.0939 42.0383 62.2529 42.5782 61.4223L42.6717 61.2043C42.7547 61.0381 43.0973 60.4879 43.6995 59.5535L43.7618 59.3666L46.129 55.4732L46.5962 54.601L47.2503 53.5109C47.5203 53.0333 47.8006 52.5661 48.0913 52.1093L48.465 51.424L48.9011 50.7388L48.9634 50.5831L51.0814 46.97C51.1645 46.8039 51.2475 46.6377 51.3306 46.4716C51.4137 46.3263 51.5071 46.1705 51.6109 46.0044C51.9639 45.4022 52.3065 44.7793 52.6388 44.1356C52.9918 43.5126 53.3655 42.8897 53.7601 42.2668L53.8224 42.0487L54.4142 41.0209L55.006 39.9307C55.1928 39.5777 55.359 39.2766 55.5043 39.0274C55.6704 38.7783 55.7639 38.5914 55.7846 38.4668L55.6289 38.4356H54.4765C54.3311 38.6433 54.1858 38.8509 54.0404 39.0586C53.895 39.2662 53.7705 39.4739 53.6666 39.6815L52.2027 42.0176C52.1404 42.1006 52.0885 42.1941 52.047 42.2979C52.0054 42.381 51.9432 42.4848 51.8601 42.6094C51.7978 42.7132 51.7251 42.8274 51.6421 42.952L50.9568 44.0733C50.9153 44.1356 50.8738 44.2083 50.8322 44.2913C50.8115 44.3744 50.6038 44.717 50.2093 45.3192C50.1678 45.3815 50.1262 45.4542 50.0847 45.5372C50.0639 45.641 50.0016 45.7552 49.8978 45.8798C49.794 46.0252 49.7109 46.1809 49.6486 46.347C49.3579 46.8246 49.0776 47.3022 48.8077 47.7798C48.5377 48.2782 48.2574 48.7661 47.9667 49.2437L47.6552 49.8667L47.2192 50.5831C47.1776 50.6454 47.1465 50.7076 47.1257 50.7699C47.105 50.853 47.0738 50.9257 47.0323 50.988L46.5028 51.9224L46.4093 52.1404C46.0148 52.8257 45.6307 53.5317 45.2569 54.2584L44.8208 55.0683C44.8001 55.1098 44.7793 55.1721 44.7585 55.2551C44.7378 55.3382 44.6028 55.5874 44.3536 56.0027L44.2913 56.1896C44.1875 56.3557 44.0941 56.5322 44.011 56.7191C43.9279 56.9059 43.8345 57.0824 43.7307 57.2486L43.6372 57.4977C43.5334 57.6639 43.44 57.8507 43.3569 58.0584C43.3154 58.1622 43.2531 58.2764 43.17 58.401C43.1077 58.5256 42.9728 58.8163 42.7651 59.2731C42.7443 59.3562 42.7132 59.4185 42.6717 59.46C42.6301 59.5223 42.5367 59.7092 42.3913 60.0207C42.246 60.3529 42.1422 60.5813 42.0799 60.7059C42.0176 60.8305 41.6853 61.5676 41.0832 62.9174C41.0832 62.9589 41.0624 63.0004 41.0209 63.0419C41.0001 63.0835 40.9793 63.1146 40.9586 63.1354C40.6471 63.9452 40.4291 64.4643 40.3045 64.6927C40.1799 64.9419 40.1072 65.1703 40.0865 65.378H40.1487ZM55.5666 37.8127C55.8158 37.8127 56.0131 37.8023 56.1584 37.7816C56.4076 37.387 56.6256 36.9925 56.8125 36.598C57.0201 36.2034 57.1551 35.9543 57.2174 35.8504C57.3835 35.6013 57.4666 35.4144 57.4666 35.2898C57.4458 35.269 57.4147 35.2586 57.3731 35.2586H56.7191C56.6568 35.2586 56.5945 35.2794 56.5322 35.3209C56.4699 35.3417 56.3661 35.487 56.2207 35.757C56.1169 35.9231 55.9819 36.1204 55.8158 36.3488C55.6497 36.5772 55.5147 36.7848 55.4109 36.9717C55.3278 37.1379 55.224 37.2936 55.0994 37.4389C54.9956 37.5635 54.9333 37.6674 54.9125 37.7504L54.9437 37.8127H55.5666ZM14.7638 38.4356C14.9299 38.4149 15.1272 38.4045 15.3556 38.4045H16.3211L16.6949 38.3734C16.7364 38.3941 16.7883 38.4045 16.8506 38.4045C17.1206 38.4045 17.2867 38.3941 17.349 38.3734H18.1588L18.6883 38.3422C19.2697 38.3422 19.6643 38.3318 19.8719 38.3111C19.9342 38.3111 19.9861 38.3214 20.0277 38.3422C20.1938 38.3422 20.3391 38.3318 20.4637 38.3111H22.7686C22.9347 38.2695 23.1112 38.2488 23.2981 38.2488L23.9211 38.2799C24.0456 38.2384 24.2118 38.2176 24.4194 38.2176L24.5751 38.2488L25.0424 38.2176L25.1358 38.2488C25.1981 38.2072 25.2708 38.1865 25.3538 38.1865L25.4161 38.2176H26.0391C26.2675 38.2176 26.444 38.2072 26.5686 38.1865H28.9358C29.0188 38.1657 29.1123 38.1553 29.2161 38.1553L30.898 38.1242C31.1057 38.1242 31.2926 38.1138 31.4587 38.093H32.1439C32.2685 38.093 32.3827 38.0826 32.4865 38.0619H33.6078L38.3734 37.9996C38.4564 37.9788 38.8509 37.9684 39.5569 37.9684C40.1176 37.9477 41.6334 37.9373 44.1044 37.9373H44.4159C44.6236 37.9373 44.8001 37.9269 44.9454 37.9061C45.6307 37.9061 46.0979 37.8958 46.347 37.875L48.3405 37.8439C49.2126 37.8439 49.7006 37.8335 49.8044 37.8127C50.0328 37.8127 50.1781 37.8231 50.2404 37.8439L50.5519 37.8127H53.6978L54.0093 37.7816C54.1338 37.5739 54.3 37.3351 54.5076 37.0652L54.5388 36.9406L54.7256 36.7226L54.9748 36.3176L55.224 35.9439C55.4316 35.6739 55.5562 35.4663 55.5978 35.3209C55.5355 35.2794 55.3486 35.2586 55.0371 35.2586L54.8814 35.2898C54.8606 35.269 54.8087 35.2586 54.7256 35.2586L54.5388 35.2898H54.2273C54.2065 35.269 54.1546 35.2483 54.0715 35.2275L54.0404 35.2586H53.4798C53.459 35.2379 53.3967 35.2275 53.2929 35.2275L53.106 35.2586C53.0645 35.2379 53.0125 35.2275 52.9502 35.2275L52.1404 35.1963C51.9328 35.1963 51.7355 35.1756 51.5486 35.134H51.206C50.9984 35.134 50.8219 35.1237 50.6765 35.1029C50.5519 35.0821 50.4689 35.0614 50.4273 35.0406H50.147C49.9394 34.9991 49.7317 34.9783 49.5241 34.9783C49.2333 34.9368 48.953 34.916 48.6831 34.916C48.6623 34.8953 48.6312 34.8849 48.5896 34.8849C48.5689 34.8641 48.4547 34.8433 48.247 34.8226C48.0601 34.8018 47.8525 34.781 47.6241 34.7603C47.4164 34.7395 47.2192 34.7084 47.0323 34.6668H46.7831C46.617 34.6253 46.4301 34.5838 46.2225 34.5422C46.0148 34.5007 45.7968 34.48 45.5684 34.48C45.1323 34.3554 44.6547 34.2515 44.1356 34.1685C43.6372 34.0854 43.1389 33.9816 42.6405 33.857C42.5159 33.857 42.4225 33.8466 42.3602 33.8259C42.2979 33.7843 42.2564 33.7636 42.2356 33.7636C42.111 33.7636 41.5919 33.639 40.6782 33.3898L40.2733 33.2964H39.993C39.8269 33.2341 39.6712 33.1302 39.5258 32.9849C39.4012 32.8188 39.3389 32.6527 39.3389 32.4865L39.3701 32.2997C39.4947 31.8636 39.7646 31.6456 40.1799 31.6456L40.7717 31.6767C40.8132 31.6767 40.8963 31.7079 41.0209 31.7701C41.1662 31.7701 41.3323 31.8013 41.5192 31.8636C41.7061 31.9259 41.8515 31.957 41.9553 31.957C42.2252 32.0193 42.4329 32.0816 42.5782 32.1439H42.7651L43.0143 32.2374C43.0973 32.2374 43.1596 32.2477 43.2012 32.2685C43.658 32.3931 44.1252 32.4969 44.6028 32.58L45.6929 32.8292H45.9421C46.046 32.8707 46.1602 32.9122 46.2847 32.9537C46.4301 32.9745 46.5651 32.9849 46.6897 32.9849C47.0634 33.0679 47.458 33.1302 47.8733 33.1718C48.2885 33.2133 48.6727 33.2756 49.0257 33.3587L49.5241 33.421H49.6798C49.929 33.4625 50.1781 33.4936 50.4273 33.5144C50.6973 33.5144 50.9464 33.5455 51.1749 33.6078H51.5175L51.8601 33.639C52.0677 33.6805 52.2754 33.7013 52.483 33.7013H52.6699L53.3863 33.7324C53.5317 33.7532 53.6874 33.7636 53.8535 33.7636C54.0404 33.7636 54.1961 33.774 54.3207 33.7947C54.4453 33.7947 54.5388 33.7843 54.601 33.7636L54.6633 33.7947C54.9541 33.8155 55.2551 33.8259 55.5666 33.8259H56.5945C57.2797 32.8914 57.9546 31.9466 58.619 30.9915C59.6573 29.4964 60.2387 28.6866 60.3633 28.562C60.4879 28.4374 60.8305 27.9494 61.3911 27.0981C61.5365 26.9735 61.6507 26.8385 61.7338 26.6932C61.8168 26.5478 61.8999 26.4336 61.9829 26.3505C62.066 26.2675 62.1387 26.1325 62.201 25.9456L62.2944 25.7587C62.3775 25.5303 62.4917 25.3019 62.637 25.0735L63.0731 24.0768L63.4469 23.2981L64.9731 19.7162C65.2222 19.1555 65.4403 18.5741 65.6272 17.9719L66.1567 16.6015C66.1982 16.4769 66.2397 16.3419 66.2812 16.1965C66.3228 16.0512 66.4889 15.5736 66.7796 14.7638C66.8419 14.4523 66.8938 14.2447 66.9353 14.1408C67.0392 13.8501 67.1222 13.549 67.1845 13.2376C67.226 13.0091 67.278 12.7911 67.3403 12.5835C67.4441 12.272 67.5168 11.9709 67.5583 11.6802C67.6206 11.3687 67.6829 11.0884 67.7452 10.8392C67.8282 10.2578 67.8698 9.90481 67.8698 9.78022C67.8905 9.65563 67.9009 9.52066 67.9009 9.37531C67.9009 9.22995 67.9113 9.0846 67.9321 8.93925C67.9736 8.79389 67.9943 8.61739 67.9943 8.40975C67.9943 8.2021 67.984 8.0256 67.9632 7.88024V7.75565L67.9943 7.72451L67.9632 7.50648C67.9424 7.38189 67.9321 7.26768 67.9321 7.16386C67.9321 7.03927 67.9217 6.92506 67.9009 6.82124C67.8178 6.30212 67.7659 6.02179 67.7452 5.98026C67.7244 5.91797 67.714 5.86606 67.714 5.82453C67.5064 5.20158 67.2364 4.63055 66.9042 4.11143C66.0528 3.0109 64.8589 2.25298 63.3223 1.83769C62.9693 1.75463 62.6059 1.68195 62.2321 1.61965L61.4223 1.46392L60.2387 1.37048H60.0518C59.9895 1.37048 59.9376 1.36009 59.8961 1.33933L59.7715 1.37048L59.2108 1.33933C59.1693 1.36009 59.0447 1.37048 58.8371 1.37048L58.5256 1.33933C58.048 1.38086 57.56 1.40162 57.0617 1.40162C56.9371 1.44315 56.7917 1.46392 56.6256 1.46392C56.4595 1.46392 56.3141 1.4743 56.1896 1.49507C56.0857 1.51583 55.9715 1.5366 55.8469 1.55736C55.7431 1.55736 55.6393 1.56774 55.5355 1.58851C55.4524 1.60927 55.3486 1.63004 55.224 1.6508C55.1202 1.6508 55.0163 1.66118 54.9125 1.68195C54.8295 1.68195 54.5595 1.72348 54.1027 1.80654C53.8743 1.8273 53.6562 1.86883 53.4486 1.93113C53.2825 1.93113 53.1683 1.94151 53.106 1.96227C52.6907 2.0661 52.265 2.15954 51.8289 2.2426C51.206 2.36719 50.6038 2.52292 50.0224 2.70981L49.3372 2.8344C49.1088 2.91745 48.3197 3.16663 46.97 3.58193C45.6203 3.99722 44.2913 4.47482 42.9831 5.0147C42.7963 5.09776 42.4225 5.23273 41.8618 5.41961C38.934 6.6655 36.0892 8.00483 33.3275 9.4376L33.0472 9.62449L32.8603 9.68678L31.6456 10.372C31.521 10.4551 31.386 10.5278 31.2406 10.59C31.0953 10.6523 30.9603 10.725 30.8357 10.8081C30.6281 10.9327 30.3997 11.0573 30.1505 11.1818C29.9221 11.3064 29.6833 11.4518 29.4341 11.6179C29.351 11.6802 29.2368 11.7321 29.0915 11.7736C28.9877 11.8775 28.8942 11.9501 28.8112 11.9917C28.7489 12.0332 28.6243 12.0851 28.4374 12.1474L28.1259 12.3966C27.939 12.4589 27.7625 12.5523 27.5964 12.6769C27.5757 12.6769 27.5549 12.6977 27.5341 12.7392C27.5134 12.76 27.4511 12.7911 27.3472 12.8326C27.1811 12.9157 26.88 13.1026 26.444 13.3933C26.0079 13.684 25.7172 13.8605 25.5719 13.9228C25.4265 13.9851 25.2085 14.1201 24.9178 14.3277C24.5025 14.6184 24.2533 14.7845 24.1702 14.8261C23.9833 14.8884 22.5506 15.8332 19.8719 17.6605L19.0309 18.2523L18.7506 18.5014C18.6676 18.5222 18.408 18.6883 17.9719 18.9998C17.8266 19.1451 17.0998 19.685 15.7916 20.6194C15.6878 20.6817 15.584 20.7648 15.4802 20.8686C15.3971 20.9517 15.3037 21.0244 15.1998 21.0867L13.1441 22.644L13.0507 22.7686L11.9605 23.6096L9.31301 25.8522L9.21957 25.9768C9.09498 26.0598 8.97039 26.1637 8.84581 26.2882C8.74198 26.3921 8.62778 26.4959 8.50319 26.5997L8.34745 26.7243C8.28516 26.8489 8.08789 27.0254 7.75565 27.2538L7.28845 27.7522C7.0185 27.9598 6.76933 28.1882 6.54091 28.4374C6.3125 28.6658 6.15676 28.8112 6.0737 28.8735L5.5442 29.4341C5.52344 29.4341 5.50267 29.4445 5.48191 29.4653C5.48191 29.4653 5.47153 29.486 5.45076 29.5275L4.95241 30.0259C4.80705 30.2128 4.67208 30.3581 4.54749 30.462C4.52673 30.5035 4.49558 30.545 4.45405 30.5866C4.41252 30.6073 4.38137 30.6385 4.36061 30.68C4.1322 30.9499 3.8934 31.2199 3.64422 31.4898C3.41581 31.7598 3.1874 32.0401 2.95898 32.3308C2.89669 32.4139 2.8344 32.4865 2.7721 32.5488C2.70981 32.6111 2.65789 32.6734 2.61637 32.7357C2.57484 32.798 2.53331 32.8603 2.49178 32.9226C2.03495 33.5248 1.64042 34.1996 1.30818 34.9472L1.24589 35.0406C1.1213 35.3313 1.059 35.5286 1.059 35.6324C0.99671 35.757 0.965563 35.9646 0.965563 36.2553L0.996711 36.3799C1.059 36.8575 1.39124 37.2209 1.99342 37.4701C2.34642 37.6362 2.72019 37.7712 3.11472 37.875L3.3016 37.9373C3.44696 37.9373 3.55078 37.9477 3.61308 37.9684C3.77919 38.01 3.95569 38.0411 4.14258 38.0619C4.35023 38.0826 4.54749 38.1138 4.73438 38.1553C4.81743 38.1761 4.90049 38.1865 4.98355 38.1865C5.08738 38.1865 5.18082 38.1969 5.26388 38.2176H5.48191C5.58573 38.2384 5.69994 38.2488 5.82453 38.2488C5.96988 38.2488 6.09447 38.2695 6.19829 38.3111L7.22615 38.3422C7.37151 38.3422 7.49609 38.3526 7.59992 38.3734L8.65892 38.4045H9.68678C9.83213 38.4253 9.99825 38.4356 10.1851 38.4356H14.7638ZM57.7158 33.8259L57.8092 33.7947H58.0895L58.3076 33.7636C58.536 33.369 58.7436 32.9641 58.9305 32.5488L59.5535 31.3652C59.7403 30.9915 59.8545 30.7631 59.8961 30.68C59.9584 30.5969 59.9895 30.5243 59.9895 30.462C60.0103 30.3997 60.031 30.3581 60.0518 30.3374C60.0726 30.3166 60.0933 30.2855 60.1141 30.2439H60.083L59.7715 30.5866L58.4633 32.4554C58.3802 32.6215 58.2764 32.7772 58.1518 32.9226C58.0272 33.0679 57.9234 33.2237 57.8404 33.3898C57.7573 33.5352 57.6639 33.6597 57.56 33.7636L57.7158 33.8259ZM59.4912 33.7324C59.9065 33.7324 60.2387 33.7117 60.4879 33.6701H60.7682C60.8097 33.6494 60.8616 33.639 60.9239 33.639C61.007 33.639 61.0693 33.6286 61.1108 33.6078C61.1731 33.5871 61.225 33.5767 61.2666 33.5767L61.4223 33.6078L61.7338 33.5767C61.9622 33.5352 62.201 33.5144 62.4501 33.5144C62.6993 33.4936 62.9277 33.4625 63.1354 33.421H63.3534C63.5195 33.3794 63.6857 33.3587 63.8518 33.3587C64.0387 33.3379 64.2152 33.3067 64.3813 33.2652H64.5993C64.807 33.2237 65.0354 33.1925 65.2845 33.1718L66.0321 33.0472C66.1567 33.0472 66.4058 33.0057 66.7796 32.9226C66.9457 32.9018 67.1015 32.8707 67.2468 32.8292H67.4025L68.5861 32.6111C69.0845 32.5281 69.5621 32.4242 70.0189 32.2997C70.3096 32.1958 70.5484 32.1439 70.7353 32.1439C70.8184 32.1439 70.9118 32.1231 71.0156 32.0816C71.1402 32.0193 71.2544 31.9882 71.3582 31.9882C71.4621 31.9882 71.7528 31.9155 72.2304 31.7701L72.9156 31.5833L75.4074 30.8357C75.4697 30.8357 75.5216 30.8357 75.5631 30.8357C75.6254 30.815 75.6981 30.7838 75.7812 30.7423C75.8642 30.7008 76.0096 30.6488 76.2172 30.5866L76.6844 30.462C76.9544 30.3581 77.2451 30.2543 77.5565 30.1505C77.868 30.0259 78.1691 29.9013 78.4598 29.7767L78.6467 29.7456L81.6057 28.4997C81.6264 28.4997 81.6576 28.4893 81.6991 28.4685C81.7406 28.427 81.7718 28.4062 81.7926 28.4062C81.8341 28.3855 81.8756 28.3751 81.9171 28.3751C82.2909 28.1675 82.6751 27.9702 83.0696 27.7833C84.6477 26.9942 85.6444 26.4336 86.0597 26.1014C89.6105 23.9833 92.393 21.2632 94.4072 17.9408L94.6875 17.4736C94.8536 17.1621 95.0094 16.8506 95.1547 16.5392L95.9645 14.4523L95.9957 14.39V14.2966C96.1618 13.819 96.2864 13.3206 96.3695 12.8015L96.5563 11.9917C96.5563 11.8048 96.5771 11.6075 96.6186 11.3999C96.6602 11.1922 96.6913 10.9846 96.7121 10.7769C96.7328 10.5693 96.7432 10.1851 96.7432 9.62449L96.7121 8.69007C96.6705 8.50319 96.6394 8.3163 96.6186 8.12942C96.5979 7.92177 96.5563 7.71412 96.494 7.50648C96.0995 5.7207 95.1547 4.50596 93.6596 3.86225C93.0159 3.63384 92.3203 3.51963 91.5728 3.51963H91.3859C91.199 3.51963 91.0329 3.53002 90.8875 3.55078C90.763 3.55078 90.6799 3.56116 90.6384 3.58193C90.4722 3.58193 90.2023 3.62346 89.8285 3.70652L88.8318 3.92455C88.6242 4.00761 88.4165 4.0699 88.2089 4.11143C87.2745 4.4229 86.2985 4.84858 85.281 5.38847C84.8657 5.55458 84.4816 5.74147 84.1286 5.94912L83.2876 6.44747C82.81 6.73818 82.3428 7.03927 81.886 7.35074C81.4499 7.64145 81.0139 7.94254 80.5778 8.25401C79.9341 8.7316 79.6019 8.99116 79.5811 9.03269C79.5811 9.05345 79.5188 9.0846 79.3942 9.12613C79.3527 9.16766 79.3112 9.20919 79.2696 9.25072C79.2281 9.27148 79.197 9.30263 79.1762 9.34416C78.8855 9.55181 78.6052 9.76984 78.3352 9.99825C77.7538 10.4343 77.38 10.7354 77.2139 10.9015C77.0478 11.0469 76.8921 11.1818 76.7467 11.3064C76.6014 11.4103 76.4768 11.5141 76.3729 11.6179C76.2691 11.7217 76.1549 11.8256 76.0303 11.9294C75.9888 11.9709 75.9576 12.0021 75.9369 12.0228C75.9369 12.0436 75.9265 12.054 75.9057 12.054C75.7604 12.1786 75.615 12.3135 75.4697 12.4589C75.3451 12.5835 75.1997 12.7081 75.0336 12.8326L74.7533 13.113C74.4418 13.3622 74.2446 13.549 74.1615 13.6736C73.9538 13.8813 73.8085 14.0059 73.7254 14.0474C73.6839 14.1304 73.6008 14.2239 73.4763 14.3277C73.3724 14.4108 73.2686 14.525 73.1648 14.6703C73.1025 14.7119 73.0506 14.7638 73.009 14.8261C72.9675 14.8676 72.9052 14.9299 72.8222 15.013C72.7391 15.0752 72.6457 15.1583 72.5418 15.2621L72.4795 15.2933C72.355 15.4594 72.2096 15.6151 72.0435 15.7605C71.8981 15.9058 71.7424 16.0616 71.5763 16.2277L71.3271 16.508C71.1817 16.6949 71.0156 16.8714 70.8287 17.0375L70.1124 17.7851C69.9878 17.9304 69.8632 18.0758 69.7386 18.2211C69.614 18.3457 69.4894 18.4703 69.3648 18.5949C69.261 18.7195 69.1779 18.8025 69.1156 18.8441C68.9911 19.0309 68.8457 19.2074 68.6796 19.3736C68.5342 19.5397 68.3993 19.7058 68.2747 19.8719C68.2331 19.9134 68.1812 19.955 68.1189 19.9965C68.0774 20.038 68.0359 20.0899 67.9943 20.1522L67.2468 21.0555C67.143 21.097 67.0703 21.1697 67.0288 21.2735C66.7588 21.6265 66.4681 21.9795 66.1567 22.3325C65.8452 22.6855 65.5441 23.0593 65.2534 23.4538L65.0042 23.703L63.6649 25.4473C63.4572 25.6549 63.343 25.8003 63.3223 25.8833C63.3223 25.9456 63.3119 25.9872 63.2911 26.0079L62.8239 26.9735L62.7616 27.1915C62.4501 27.7729 62.1491 28.3647 61.8583 28.9669C61.2562 30.192 60.8409 31.0122 60.6125 31.4275C60.4879 31.739 60.3425 32.0297 60.1764 32.2997L59.8026 33.0472C59.595 33.4002 59.4912 33.6286 59.4912 33.7324Z" fill="white"/>
<path d="M93.7842 44.3225H93.6908C93.2547 44.1771 92.9744 43.876 92.8498 43.4192C92.8083 43.2946 92.7771 43.1596 92.7564 43.0143C92.7564 42.8689 92.7564 42.7132 92.7564 42.5471V42.3602L92.8498 41.7995C92.9536 41.0935 93.2236 40.2007 93.6596 39.1209L93.7842 38.8406C93.9504 38.363 94.1061 38.0723 94.2514 37.9684C94.3968 37.8646 94.5318 37.8127 94.6564 37.8127H94.7187C95.0301 37.9373 95.1859 38.1242 95.1859 38.3734C95.1859 38.6225 95.1132 38.8925 94.9678 39.1832C94.8225 39.4531 94.7394 39.64 94.7187 39.7438C94.3241 40.5952 94.1165 41.2597 94.0957 41.7373C94.0334 41.9241 94.0023 42.1318 94.0023 42.3602C94.0023 42.5263 94.023 42.6717 94.0646 42.7963C94.0853 42.817 94.1372 42.8274 94.2203 42.8274C94.2618 42.7651 94.3137 42.7236 94.376 42.7028C94.4591 42.6821 94.5214 42.6613 94.5629 42.6405C94.9782 42.2875 95.1962 42.0903 95.217 42.0487C95.2585 42.0072 95.3001 41.9657 95.3416 41.9241C95.7361 41.5711 96.0787 41.1766 96.3695 40.7405L96.7432 40.1176C96.847 40.0138 96.899 39.9203 96.899 39.8373L96.7121 39.6815C96.3798 39.4324 96.193 39.2351 96.1514 39.0897C96.1514 39.0274 96.141 38.9755 96.1203 38.934C96.0995 38.8925 96.0787 38.8613 96.058 38.8406C96.0372 38.799 96.0165 38.7471 95.9957 38.6848C95.9957 38.6225 95.9853 38.5499 95.9645 38.4668C95.923 38.4253 95.9022 38.2695 95.9022 37.9996C95.9022 37.7712 95.9126 37.6362 95.9334 37.5947C95.9542 37.5531 95.9645 37.4805 95.9645 37.3766C95.9853 37.2728 96.0165 37.1898 96.058 37.1275C96.1203 37.0652 96.1618 37.0029 96.1826 36.9406C96.2033 36.8783 96.2656 36.7952 96.3695 36.6914C96.4733 36.5668 96.5875 36.4422 96.7121 36.3176C96.8159 36.3176 96.899 36.2865 96.9613 36.2242C97.0443 36.1619 97.1585 36.1204 97.3039 36.0996C97.6569 36.0996 97.9476 36.1619 98.176 36.2865L98.3317 36.4734C98.4771 36.5772 98.5601 36.681 98.5809 36.7848C98.6017 36.8887 98.6328 36.9717 98.6743 37.034C98.7159 37.0756 98.7366 37.2832 98.7366 37.657C98.6951 38.1346 98.6328 38.4668 98.5498 38.6537L98.4875 38.9029C98.529 38.9029 98.5498 38.9132 98.5498 38.934C98.6743 38.934 98.7886 38.9132 98.8924 38.8717L99.5465 38.6848C100.107 38.3941 100.46 38.1657 100.605 37.9996C100.751 37.8127 100.927 37.7193 101.135 37.7193C101.28 37.7193 101.415 37.7816 101.54 37.9061C101.664 38.01 101.748 38.1657 101.789 38.3734C101.789 38.4979 101.758 38.6122 101.696 38.716C101.633 38.799 101.571 38.8717 101.509 38.934C101.467 38.9755 101.426 38.9963 101.384 38.9963C101.343 38.9963 101.311 39.0067 101.291 39.0274C100.605 39.4843 99.8268 39.8269 98.9547 40.0553C98.8301 40.0968 98.7055 40.128 98.5809 40.1487C98.4771 40.1487 98.394 40.1487 98.3317 40.1487L98.0826 40.1176C97.958 40.1591 97.8749 40.2214 97.8334 40.3045C97.8126 40.3875 97.7918 40.4498 97.7711 40.4914C97.3973 41.1974 96.9613 41.8618 96.4629 42.4848C96.4006 42.5886 96.3279 42.6821 96.2449 42.7651C96.1826 42.8482 96.1099 42.9312 96.0268 43.0143C95.9645 43.0766 95.9022 43.1493 95.84 43.2323C95.4454 43.6269 95.217 43.8345 95.1547 43.8553C95.1132 43.876 95.0717 43.9176 95.0301 43.9799C94.9886 44.0421 94.9055 44.0837 94.7809 44.1044L94.6875 44.1356C94.6044 44.1979 94.5006 44.2498 94.376 44.2913C94.1269 44.2913 93.9296 44.3017 93.7842 44.3225ZM97.4285 38.5602C97.5115 38.3526 97.553 38.1242 97.553 37.875C97.553 37.7504 97.5323 37.6674 97.4908 37.6258C97.3246 37.6881 97.2416 37.8646 97.2416 38.1553C97.2416 38.3837 97.3039 38.5187 97.4285 38.5602ZM87.6794 44.1044L87.5236 44.0733C87.316 44.011 87.1499 43.9383 87.0253 43.8553C86.9007 43.7722 86.8073 43.6372 86.745 43.4504C86.6619 43.2427 86.6204 43.0247 86.6204 42.7963C86.6619 42.5263 86.6827 42.2668 86.6827 42.0176C86.9734 40.8963 87.3991 39.6608 87.9597 38.3111C88.2089 37.7712 88.4892 37.5012 88.8007 37.5012C88.9045 37.5012 89.0187 37.5531 89.1433 37.657C89.2679 37.7608 89.3302 37.8854 89.3302 38.0307C89.3302 38.2799 89.1952 38.6018 88.9253 38.9963L88.8941 39.0897C88.6449 39.4427 88.4892 39.6815 88.4269 39.8061C88.3854 39.9307 88.3231 40.0553 88.24 40.1799C88.24 40.2007 88.2296 40.2214 88.2089 40.2422C88.1881 40.263 88.1674 40.2837 88.1466 40.3045C87.8974 40.9067 87.7521 41.3012 87.7105 41.4881C87.5444 41.8618 87.4613 42.2875 87.4613 42.7651L87.4925 43.1077C87.534 43.1493 87.6067 43.17 87.7105 43.17C87.7728 43.1285 87.8559 43.0973 87.9597 43.0766C88.0635 43.0351 88.2089 42.9312 88.3958 42.7651L88.5515 42.6405C88.7592 42.4952 88.9253 42.3187 89.0499 42.111C89.1122 42.028 89.1952 41.9553 89.299 41.893C89.4029 41.8099 89.4859 41.7269 89.5482 41.6438C89.6313 41.54 89.7143 41.4258 89.7974 41.3012C90.1504 40.8444 90.358 40.5433 90.4203 40.3979C90.4203 40.3772 90.4203 40.3564 90.4203 40.3356C90.4411 40.3149 90.4722 40.2837 90.5138 40.2422C90.5761 40.2007 90.6799 40.0138 90.8252 39.6815C90.846 39.6192 90.8772 39.5466 90.9187 39.4635C90.981 39.3804 91.0329 39.2766 91.0744 39.152L90.6695 38.934C90.3788 38.7056 90.1919 38.5395 90.1089 38.4356C89.6105 37.9373 89.3613 37.3144 89.3613 36.5668C89.3613 36.0269 89.4548 35.6635 89.6417 35.4767L89.7039 35.2898C89.7662 35.1444 89.8285 35.051 89.8908 35.0095C89.9739 34.9679 90.0466 34.8953 90.1089 34.7914C90.1919 34.6876 90.2854 34.6149 90.3892 34.5734C90.5138 34.5319 90.5968 34.5007 90.6384 34.48C90.7422 34.3761 90.8668 34.3242 91.0121 34.3242C91.1782 34.3035 91.3028 34.2723 91.3859 34.2308C91.552 34.2308 91.687 34.2515 91.7908 34.2931C91.8946 34.3346 91.9777 34.3657 92.04 34.3865C92.1231 34.3865 92.2061 34.4073 92.2892 34.4488C92.8083 34.8226 93.0678 35.3521 93.0678 36.0373C93.0678 36.245 93.0367 36.4526 92.9744 36.6603C92.9744 36.7641 92.964 36.8471 92.9433 36.9094C92.8187 37.4908 92.7045 37.8854 92.6006 38.093C92.5591 38.1553 92.5383 38.228 92.5383 38.3111C92.6422 38.3526 92.7564 38.3734 92.881 38.3734C93.234 38.3734 93.587 38.3007 93.94 38.1553C94.023 38.1138 94.1269 38.0826 94.2514 38.0619C94.4383 38.0619 94.5837 38.1346 94.6875 38.2799C94.8121 38.4045 94.8848 38.5499 94.9055 38.716C94.9055 38.8406 94.8536 38.9652 94.7498 39.0897C94.646 39.1936 94.5525 39.2559 94.4695 39.2766C94.3864 39.2974 94.293 39.3078 94.1891 39.3078C93.7946 39.4116 93.4001 39.4635 93.0056 39.4635L92.7875 39.4947C92.5383 39.4531 92.2995 39.4324 92.0711 39.4324L91.7597 39.993C91.0537 41.3843 90.14 42.5471 89.0187 43.4815C88.7695 43.6476 88.4996 43.8137 88.2089 43.9799C88.1466 43.9799 88.0635 44.0006 87.9597 44.0421C87.8559 44.0837 87.7624 44.1044 87.6794 44.1044ZM91.5105 38.0307C91.6974 37.6777 91.7908 37.2105 91.7908 36.6291C91.7908 36.3176 91.7285 36.0685 91.6039 35.8816H91.4793C91.4586 35.9231 91.4067 35.9543 91.3236 35.975C91.2405 35.9958 91.1471 36.0581 91.0433 36.1619C90.8564 36.3696 90.763 36.6187 90.763 36.9094C90.763 37.2832 90.9083 37.5843 91.199 37.8127C91.2405 37.8335 91.2717 37.8646 91.2925 37.9061C91.334 37.9477 91.4067 37.9892 91.5105 38.0307Z" fill="white"/>
<path d="M106.71 43.6995C106.586 43.658 106.472 43.5749 106.368 43.4504C106.264 43.3258 106.212 43.1804 106.212 43.0143C106.212 42.8689 106.254 42.7443 106.337 42.6405C106.42 42.5159 106.482 42.4121 106.523 42.3291C106.565 42.246 106.814 41.8618 107.271 41.1766C107.645 40.616 107.987 40.0449 108.299 39.4635L108.704 38.8406C108.911 38.4253 109.078 38.1449 109.202 37.9996C109.327 37.8542 109.389 37.7193 109.389 37.5947H109.327C109.285 37.657 109.233 37.7089 109.171 37.7504C109.026 37.8542 108.818 38.0619 108.548 38.3734L107.8 39.1209C107.655 39.3078 107.489 39.4947 107.302 39.6815C107.136 39.8477 106.98 40.0242 106.835 40.211C106.814 40.2526 106.773 40.3045 106.71 40.3668C106.648 40.4083 106.586 40.4602 106.523 40.5225C106.482 40.5848 106.42 40.6575 106.337 40.7405C106.274 40.8028 106.202 40.8963 106.119 41.0209L105.994 41.1766C105.766 41.4673 105.527 41.7476 105.278 42.0176L105.153 42.1422C105.049 42.2875 104.925 42.4225 104.779 42.5471C104.634 42.6509 104.416 42.7028 104.125 42.7028H103.845C103.513 42.5159 103.346 42.2875 103.346 42.0176C103.346 41.6438 103.585 41.0832 104.063 40.3356C104.104 40.1903 104.156 40.0761 104.219 39.993C104.302 39.91 104.468 39.6089 104.717 39.0897C104.841 38.9444 104.925 38.799 104.966 38.6537L105.028 38.5291C105.132 38.4253 105.205 38.3007 105.246 38.1553H105.153C105.132 38.1969 105.101 38.2176 105.06 38.2176C105.039 38.2176 104.945 38.2903 104.779 38.4356C104.634 38.5602 104.53 38.6537 104.468 38.716C104.426 38.7575 104.374 38.8094 104.312 38.8717C103.917 39.1832 103.502 39.5673 103.066 40.0242C102.879 40.211 102.703 40.4083 102.537 40.616L102.412 40.7405C102.287 40.8651 102.173 40.9897 102.069 41.1143C101.986 41.2181 101.893 41.3116 101.789 41.3946C101.706 41.4777 101.623 41.5711 101.54 41.675C101.457 41.7788 101.384 41.8618 101.322 41.9241C101.26 41.9864 100.948 42.3498 100.387 43.0143C100.097 43.3258 99.8787 43.523 99.7334 43.6061L99.3284 43.6684C98.8093 43.6684 98.5498 43.4607 98.5498 43.0454C98.5498 42.8378 98.6536 42.5471 98.8612 42.1733L98.8924 42.0799C98.9339 41.9345 98.9962 41.7892 99.0793 41.6438C99.4946 40.8963 99.7126 40.4914 99.7334 40.4291C99.7541 40.346 99.7956 40.263 99.8579 40.1799L100.605 38.8406C100.958 38.1553 101.332 37.5012 101.727 36.8783L101.914 36.598C102.246 35.975 102.547 35.6635 102.817 35.6635H102.942C103.253 35.7881 103.409 35.975 103.409 36.2242C103.409 36.4318 103.336 36.6499 103.191 36.8783C102.152 38.3526 101.592 39.2247 101.509 39.4947L101.042 40.2733C100.958 40.3772 100.917 40.481 100.917 40.5848H100.948L101.384 40.1799C101.488 40.0968 101.571 40.0138 101.633 39.9307C101.716 39.8477 101.779 39.7854 101.82 39.7438C101.883 39.7023 101.945 39.6504 102.007 39.5881C102.236 39.3182 102.547 39.0171 102.942 38.6848L103.689 37.9684C103.897 37.8231 104.104 37.657 104.312 37.4701C104.52 37.2832 104.758 37.0963 105.028 36.9094C105.423 36.6187 105.745 36.4526 105.994 36.4111C106.16 36.4111 106.326 36.4734 106.492 36.598C106.679 36.7018 106.783 36.8056 106.804 36.9094C106.845 36.9925 106.866 37.0756 106.866 37.1586C106.866 37.3663 106.835 37.5843 106.773 37.8127C106.731 38.0204 106.648 38.228 106.523 38.4356C106.482 38.5602 106.44 38.6744 106.399 38.7783C106.357 38.8613 106.295 38.9548 106.212 39.0586C106.15 39.1417 106.098 39.2559 106.056 39.4012H106.119L106.461 39.152C106.71 38.8406 107.136 38.4045 107.738 37.8439C107.863 37.7193 107.967 37.6154 108.05 37.5324C108.133 37.4286 108.382 37.2105 108.797 36.8783C109.046 36.5876 109.337 36.3073 109.669 36.0373L109.887 35.8504C110.116 35.6428 110.365 35.5182 110.635 35.4767C110.759 35.4767 110.863 35.4974 110.946 35.539C111.05 35.5805 111.123 35.6428 111.164 35.7258C111.227 35.7881 111.258 35.8816 111.258 36.0062C111.258 36.2138 111.185 36.463 111.04 36.7537L110.51 37.657C110.365 37.8439 110.24 38.0307 110.137 38.2176C110.053 38.4045 109.939 38.5914 109.794 38.7783C109.565 39.0897 109.451 39.2974 109.451 39.4012L109.482 39.4324C109.586 39.3701 109.659 39.3078 109.7 39.2455C109.763 39.1624 109.825 39.1001 109.887 39.0586C110.033 38.9548 110.157 38.8613 110.261 38.7783C110.365 38.6744 110.448 38.5914 110.51 38.5291L111.351 37.875C111.87 37.4182 112.431 37.0236 113.033 36.6914L113.282 36.5357C113.511 36.3903 113.76 36.2865 114.03 36.2242C114.092 36.1827 114.186 36.1619 114.31 36.1619C114.414 36.1827 114.642 36.2761 114.995 36.4422C115.182 36.5876 115.276 36.8783 115.276 37.3144C115.276 37.8542 114.892 38.8302 114.123 40.2422C113.853 40.8651 113.698 41.1974 113.656 41.2389C113.635 41.2597 113.625 41.3012 113.625 41.3635L113.718 41.3946C113.843 41.2908 113.978 41.2078 114.123 41.1455L114.809 40.616C114.912 40.5329 114.995 40.4706 115.058 40.4291C115.12 40.3668 115.162 40.3252 115.182 40.3045C115.203 40.2837 115.214 40.263 115.214 40.2422C115.463 40.0761 115.701 39.8996 115.93 39.7127C116.158 39.505 116.387 39.3078 116.615 39.1209L116.771 38.934C116.937 38.8094 117.082 38.6744 117.207 38.5291C117.311 38.4668 117.425 38.4356 117.55 38.4356C117.882 38.4356 118.079 38.6225 118.141 38.9963C118.141 39.1417 118.11 39.2559 118.048 39.3389C117.986 39.4012 117.913 39.4635 117.83 39.5258L117.768 39.5881L115.743 41.3323C115.432 41.5815 115.13 41.8411 114.84 42.111C114.404 42.4225 114.165 42.599 114.123 42.6405C114.103 42.6613 114.071 42.6821 114.03 42.7028C113.988 42.7236 113.947 42.7443 113.905 42.7651C113.698 42.9105 113.469 43.0143 113.22 43.0766C112.826 43.0766 112.566 43.0454 112.441 42.9831C112.338 42.9208 112.244 42.817 112.161 42.6717C112.099 42.5056 112.057 42.329 112.036 42.1422C112.036 41.9968 112.057 41.8411 112.099 41.675C112.161 41.3843 112.223 41.187 112.286 41.0832C112.348 40.9586 112.389 40.8547 112.41 40.7717L113.251 38.7471C113.417 38.3941 113.5 38.1657 113.5 38.0619C113.583 37.9581 113.635 37.8335 113.656 37.6881H113.625C113.563 37.6881 113.438 37.7504 113.251 37.875L113.189 37.9061C112.649 38.2384 112.338 38.446 112.255 38.5291C112.171 38.6122 112.078 38.6848 111.974 38.7471C111.517 39.1209 111.258 39.3493 111.196 39.4324C111.154 39.4947 111.112 39.5466 111.071 39.5881C110.863 39.7127 110.676 39.8788 110.51 40.0865L110.355 40.211C109.732 40.9586 109.389 41.3531 109.327 41.3946C109.285 41.4362 109.233 41.4881 109.171 41.5504C109.129 41.5919 109.078 41.6542 109.015 41.7373L108.486 42.4848C108.486 42.5056 108.465 42.5367 108.423 42.5782C108.382 42.599 108.34 42.6509 108.299 42.734C107.987 43.2116 107.707 43.5126 107.458 43.6372L106.71 43.6995Z" fill="white"/>
<path d="M116.864 44.1044L116.709 44.0733C116.501 44.011 116.335 43.9383 116.21 43.8553C116.086 43.7722 115.992 43.6372 115.93 43.4504C115.847 43.2427 115.805 43.0247 115.805 42.7963C115.847 42.5263 115.868 42.2668 115.868 42.0176C116.158 40.8963 116.584 39.6608 117.145 38.3111C117.394 37.7712 117.674 37.5012 117.986 37.5012C118.089 37.5012 118.204 37.5531 118.328 37.657C118.453 37.7608 118.515 37.8854 118.515 38.0307C118.515 38.2799 118.38 38.6018 118.11 38.9963L118.079 39.0897C117.83 39.4427 117.674 39.6815 117.612 39.8061C117.57 39.9307 117.508 40.0553 117.425 40.1799C117.425 40.2007 117.415 40.2214 117.394 40.2422C117.373 40.263 117.352 40.2837 117.332 40.3045C117.082 40.9067 116.937 41.3012 116.895 41.4881C116.729 41.8618 116.646 42.2875 116.646 42.7651L116.677 43.1077C116.719 43.1493 116.792 43.17 116.895 43.17C116.958 43.1285 117.041 43.0973 117.145 43.0766C117.248 43.0351 117.394 42.9312 117.581 42.7651L117.736 42.6405C117.944 42.4952 118.11 42.3187 118.235 42.111C118.297 42.028 118.38 41.9553 118.484 41.893C118.588 41.8099 118.671 41.7269 118.733 41.6438C118.816 41.54 118.899 41.4258 118.982 41.3012C119.335 40.8444 119.543 40.5433 119.605 40.3979C119.605 40.3772 119.605 40.3564 119.605 40.3356C119.626 40.3149 119.657 40.2837 119.699 40.2422C119.761 40.2007 119.865 40.0138 120.01 39.6815C120.031 39.6192 120.062 39.5466 120.104 39.4635C120.166 39.3804 120.218 39.2766 120.259 39.152L119.854 38.934C119.564 38.7056 119.377 38.5395 119.294 38.4356C118.795 37.9373 118.546 37.3144 118.546 36.5668C118.546 36.0269 118.64 35.6635 118.827 35.4767L118.889 35.2898C118.951 35.1444 119.013 35.051 119.076 35.0095C119.159 34.9679 119.232 34.8953 119.294 34.7914C119.377 34.6876 119.47 34.6149 119.574 34.5734C119.699 34.5319 119.782 34.5007 119.823 34.48C119.927 34.3761 120.052 34.3242 120.197 34.3242C120.363 34.3035 120.488 34.2723 120.571 34.2308C120.737 34.2308 120.872 34.2515 120.976 34.2931C121.08 34.3346 121.163 34.3657 121.225 34.3865C121.308 34.3865 121.391 34.4073 121.474 34.4488C121.993 34.8226 122.253 35.3521 122.253 36.0373C122.253 36.245 122.222 36.4526 122.159 36.6603C122.159 36.7641 122.149 36.8471 122.128 36.9094C122.004 37.4908 121.889 37.8854 121.786 38.093C121.744 38.1553 121.723 38.228 121.723 38.3111C121.827 38.3526 121.941 38.3734 122.066 38.3734C122.419 38.3734 122.772 38.3007 123.125 38.1553C123.208 38.1138 123.312 38.0826 123.436 38.0619C123.623 38.0619 123.769 38.1346 123.872 38.2799C123.997 38.4045 124.07 38.5499 124.09 38.716C124.09 38.8406 124.039 38.9652 123.935 39.0897C123.831 39.1936 123.737 39.2559 123.654 39.2766C123.571 39.2974 123.478 39.3078 123.374 39.3078C122.98 39.4116 122.585 39.4635 122.19 39.4635L121.972 39.4947C121.723 39.4531 121.484 39.4324 121.256 39.4324L120.945 39.993C120.239 41.3843 119.325 42.5471 118.204 43.4815C117.954 43.6476 117.685 43.8137 117.394 43.9799C117.332 43.9799 117.248 44.0006 117.145 44.0421C117.041 44.0837 116.947 44.1044 116.864 44.1044ZM120.695 38.0307C120.882 37.6777 120.976 37.2105 120.976 36.6291C120.976 36.3176 120.913 36.0685 120.789 35.8816H120.664C120.644 35.9231 120.592 35.9543 120.509 35.975C120.425 35.9958 120.332 36.0581 120.228 36.1619C120.041 36.3696 119.948 36.6187 119.948 36.9094C119.948 37.2832 120.093 37.5843 120.384 37.8127C120.425 37.8335 120.457 37.8646 120.477 37.9061C120.519 37.9477 120.592 37.9892 120.695 38.0307Z" fill="white"/>
</svg>
